<svg preserveAspectRatio="xMidYMid meet" width="100%" height="100%" overflow="visible" style="display: block;" viewBox="0 0 187 58" fill="none" xmlns="http://www.w3.org/2000/svg">
<g id="Frame 42">
<rect width="187" height="58" rx="14" fill="var(--fill-0, white)"/>
<g id="Vector">
<path d="M51.0792 23.8082C51.7155 24.9191 52.3443 26.0166 52.9806 27.1289C52.7062 27.2268 52.4511 27.3203 52.1945 27.4078C51.4752 27.651 50.7559 27.8913 50.0366 28.1345C49.2728 28.3926 48.5104 28.6536 47.7481 28.9131C47.5939 28.965 47.4396 29.0155 47.2898 29.0763C47.1979 29.1133 47.1504 29.0911 47.1015 29.0066C46.9428 28.7366 46.7767 28.4712 46.5957 28.1745C46.4934 28.3703 46.4044 28.5409 46.3139 28.7129C46.1819 28.9636 46.0559 29.2157 45.915 29.4619C45.8809 29.5227 45.8127 29.5805 45.7459 29.6043C44.4348 30.0581 43.1223 30.506 41.8097 30.9554C40.6959 31.3365 39.5806 31.7192 38.4668 32.0989C38.1909 32.1923 37.9121 32.2768 37.6095 32.3747C37.6303 32.3139 37.6407 32.2768 37.657 32.2427C38.3155 30.8872 38.9725 29.5301 39.6355 28.1775C39.6725 28.1033 39.7512 28.0262 39.8268 27.998C41.1972 27.479 42.5706 26.9673 43.9424 26.4541C45.1393 26.0062 46.3347 25.5598 47.5316 25.1119C48.5624 24.7278 49.5916 24.3422 50.6224 23.9595C50.7692 23.9061 50.919 23.8616 51.0792 23.8082ZM40.4215 26.5565C40.4319 26.5668 40.4438 26.5772 40.4541 26.5876C43.8045 25.3373 47.1549 24.0871 50.5186 22.8309C49.0221 20.2176 47.539 17.6251 46.0366 15C44.153 18.8769 42.2873 22.7167 40.4215 26.5565ZM60.4243 20.4119C60.3724 20.3185 60.3116 20.3452 60.2404 20.3719C59.1474 20.7797 58.0543 21.1876 56.9612 21.5954C55.8489 22.0107 54.7351 22.423 53.6242 22.8427C53.5545 22.8694 53.4759 22.9273 53.4433 22.9925C53.1763 23.5205 52.9198 24.053 52.6558 24.5824C52.6127 24.6684 52.6202 24.7337 52.6691 24.8138C52.8975 25.1831 53.12 25.5553 53.3424 25.9291C53.5189 26.2242 53.691 26.5223 53.8689 26.8279C56.7195 25.852 59.5552 24.882 62.4073 23.9061C61.7369 22.7241 61.0799 21.5687 60.4243 20.4119ZM54.2768 27.4938C54.6624 28.1478 55.051 28.7989 55.4351 29.4545C55.4841 29.5375 55.533 29.5405 55.6146 29.5153C56.2034 29.3269 56.7922 29.1445 57.3795 28.9532C57.4403 28.9339 57.4981 28.8716 57.5322 28.8138C57.6509 28.6121 57.7592 28.4044 57.8837 28.1745C57.946 28.2769 57.9935 28.3555 58.041 28.4341C58.1878 28.6803 58.1878 28.6803 58.4651 28.6195C58.5259 28.6061 58.5882 28.5913 58.6476 28.5735C60.1618 28.1019 61.6746 27.6302 63.1889 27.1586C63.487 27.0652 63.7851 26.9717 64.0995 26.8724C64.0609 26.7893 64.0342 26.7211 63.9986 26.6588C63.6086 25.978 63.2156 25.2988 62.8299 24.6151C62.7751 24.5187 62.7202 24.5157 62.6268 24.5483C62.0528 24.7456 61.4759 24.9339 60.9004 25.1297C59.751 25.5212 58.6016 25.9143 57.4536 26.3088C56.721 26.5609 55.9898 26.816 55.2586 27.0711C54.9234 27.1868 54.5897 27.3039 54.2501 27.4211C54.2635 27.4567 54.2664 27.4775 54.2768 27.4938ZM36.2124 35.5441C37.3277 35.1986 38.4416 34.853 39.5569 34.5074C40.9955 34.0595 42.4356 33.6131 43.8727 33.1623C43.938 33.1415 44.0121 33.0866 44.0433 33.0273C44.423 32.3213 44.7952 31.6139 45.1675 30.905C45.2402 30.7655 45.3025 30.6202 45.3811 30.4556C44.7849 30.6543 44.2198 30.8382 43.6562 31.0295C42.4771 31.43 41.298 31.8334 40.1204 32.2383C39.2944 32.5216 38.4727 32.8241 37.6407 33.0896C37.3055 33.1964 37.0875 33.3521 36.9436 33.6962C36.6781 34.3324 36.3474 34.9405 36.0241 35.6005C36.116 35.5723 36.165 35.5605 36.2124 35.5441ZM57.3142 15C56.2612 17.1683 55.2275 19.2981 54.173 21.4708C56.0758 20.7589 57.9297 20.0663 59.8118 19.3618C58.9753 17.901 58.1537 16.4653 57.3142 15ZM53.3795 27.8082C53.3321 27.7237 53.2802 27.7415 53.2104 27.7652C52.3146 28.0707 51.4174 28.3733 50.5216 28.6803C49.5857 29.0006 48.6528 29.3254 47.7185 29.6488C47.6576 29.6695 47.5983 29.6977 47.5242 29.7288C47.8935 30.3443 48.2509 30.9405 48.6068 31.5382C48.6543 31.6169 48.6914 31.6643 48.8026 31.6287C49.5516 31.3929 50.302 31.1675 51.0525 30.9346C51.7525 30.7181 52.4496 30.4956 53.1482 30.2746C53.6064 30.1293 54.0647 29.9825 54.5289 29.8356C54.1418 29.1549 53.7592 28.483 53.3795 27.8082ZM58.5689 29.3328C58.8359 29.7822 59.1088 30.2287 59.3654 30.684C59.4351 30.8086 59.4914 30.8382 59.6309 30.7982C61.2623 30.3354 62.8952 29.8801 64.5281 29.4233C64.8188 29.3417 65.108 29.2587 65.3883 29.1801C65.3943 29.1549 65.3987 29.1475 65.3972 29.1445C65.0769 28.575 64.7565 28.0055 64.4287 27.4404C64.4065 27.4033 64.3116 27.3766 64.2641 27.3914C63.527 27.6124 62.7929 27.8408 62.0572 28.0663C61.4373 28.2576 60.8174 28.4474 60.1974 28.6402C59.6338 28.8152 59.0702 28.9947 58.4829 29.1786C58.52 29.2439 58.5422 29.2884 58.5689 29.3328ZM43.4189 33.8623C42.6432 34.1011 41.8676 34.3384 41.0934 34.5801C40.024 34.9138 38.9562 35.2549 37.8869 35.5886C37.2032 35.8022 36.5165 36.0084 35.8328 36.2249C35.7719 36.2442 35.7008 36.2946 35.6726 36.351C35.4694 36.747 35.2766 37.1474 35.0808 37.5478C35.0645 37.582 35.0556 37.619 35.0393 37.6709C35.112 37.6517 35.1609 37.6383 35.2113 37.625C36.2807 37.3269 37.35 37.0302 38.4178 36.7321C39.8149 36.3421 41.212 35.9535 42.6076 35.559C42.6773 35.5397 42.753 35.4759 42.7871 35.4122C42.9769 35.0681 43.1534 34.7181 43.3358 34.3695C43.4293 34.1901 43.5212 34.0106 43.6295 33.803C43.5361 33.8297 43.4767 33.8445 43.4189 33.8623ZM49.7696 33.4767C49.7874 33.5049 49.8601 33.5182 49.9016 33.5093C50.1463 33.4515 50.3896 33.3892 50.6298 33.321C52.0803 32.9146 53.5308 32.5082 54.9813 32.1003C55.2201 32.0336 55.4588 31.9639 55.7139 31.8897C55.4025 31.3543 55.1044 30.8397 54.8033 30.3236C52.853 30.9302 50.9161 31.5323 48.9569 32.1419C49.2357 32.6031 49.4997 33.0421 49.7696 33.4767ZM59.7955 31.3914C60.0135 31.7548 60.2375 32.1152 60.4481 32.483C60.5044 32.5794 60.5593 32.5957 60.6616 32.5705C61.2653 32.4192 61.8718 32.2783 62.477 32.127C63.5685 31.8541 64.6601 31.5783 65.7502 31.3024C66.0068 31.2372 66.2619 31.1704 66.5377 31.1007C66.25 30.6054 65.9801 30.1337 65.7013 29.6666C65.679 29.6295 65.5974 29.5998 65.5529 29.6102C65.2385 29.6873 64.9241 29.7704 64.6126 29.8594C63.4291 30.1931 62.2456 30.5312 61.0621 30.8634C60.6201 30.988 60.1752 31.1037 59.7065 31.2298C59.7451 31.3009 59.7688 31.3469 59.7955 31.3914ZM66.8166 31.5931C66.7558 31.4834 66.6935 31.4671 66.5793 31.4952C65.636 31.7325 64.6898 31.9639 63.7465 32.1997C62.9249 32.4044 62.1032 32.6135 61.2801 32.8211C61.0991 32.8671 60.9197 32.9116 60.7209 32.962C60.939 33.3239 61.1511 33.6591 61.3453 34.0047C61.4106 34.1204 61.4714 34.1515 61.6019 34.1218C63.0376 33.8044 64.4747 33.4945 65.9104 33.1815C66.4413 33.0659 66.9708 32.9472 67.527 32.8241C67.2808 32.3985 67.0435 31.998 66.8166 31.5931ZM50.6224 34.9346C50.6743 35.0221 50.7218 35.0429 50.8226 35.0162C51.533 34.8382 52.2449 34.6706 52.9553 34.4941C54.0781 34.2138 55.1993 33.9305 56.322 33.6472C56.4318 33.6191 56.54 33.5879 56.6631 33.5538C56.4362 33.1608 56.2152 32.787 56.0061 32.4088C55.9512 32.3109 55.9008 32.2946 55.7955 32.3258C55.1874 32.5038 54.5779 32.6728 53.9683 32.8449C53.3588 33.0169 52.7507 33.1904 52.1396 33.3595C51.4441 33.5523 50.7485 33.7422 50.0262 33.9409C50.2353 34.2909 50.4326 34.6098 50.6224 34.9346ZM62.1789 35.4107C62.2367 35.513 62.2931 35.5441 62.4132 35.5204C64.1188 35.1941 65.8258 34.8738 67.5314 34.5534C67.8206 34.4985 68.1128 34.4541 68.4272 34.4007C68.187 33.9869 67.963 33.5983 67.7302 33.2127C67.7094 33.1786 67.6323 33.1563 67.5878 33.1652C67.2289 33.2335 66.87 33.3046 66.5125 33.3832C65.0769 33.6991 63.6427 34.018 62.207 34.3354C62.0246 34.3754 61.8407 34.4155 61.6227 34.4644C61.8199 34.7981 62.0053 35.1007 62.1789 35.4107ZM68.6868 34.8367C68.6185 34.7062 68.5488 34.6661 68.3961 34.6958C66.6697 35.028 64.9404 35.3513 63.2126 35.6761C62.9634 35.7236 62.7113 35.7622 62.4473 35.8067C62.4695 35.8601 62.4799 35.8942 62.4977 35.9253C62.649 36.1893 62.8032 36.4503 62.9501 36.7158C63.0005 36.8078 63.0524 36.8345 63.1622 36.8167C64.8944 36.5408 66.6267 36.2709 68.359 35.9995C68.6527 35.9535 68.9448 35.9045 69.2459 35.8556C69.0501 35.5056 68.8618 35.1749 68.6868 34.8367ZM63.7154 37.9765C63.7391 38.0135 63.8207 38.0358 63.8726 38.0299C64.4347 37.9646 64.9953 37.8904 65.5559 37.8207C66.7765 37.668 67.9971 37.5152 69.2192 37.361C69.4877 37.3269 69.7546 37.2913 70.026 37.2557C70.0216 37.223 70.0231 37.2067 70.0156 37.1949C69.8243 36.8523 69.633 36.5097 69.4357 36.1715C69.4179 36.1404 69.3497 36.1166 69.3112 36.1226C68.2448 36.2872 67.1799 36.4577 66.115 36.6224C65.4951 36.7188 64.8722 36.8078 64.2523 36.9027C63.9022 36.9561 63.5522 37.0124 63.1711 37.0732C63.3639 37.3951 63.5344 37.6902 63.7154 37.9765ZM70.2144 37.5449C70.1921 37.5093 70.1061 37.4915 70.0542 37.4974C69.5233 37.5597 68.9953 37.6324 68.4643 37.6962C67.3001 37.8385 66.1358 37.9779 64.9716 38.1203C64.6201 38.1633 64.27 38.2093 63.8859 38.2583C64.058 38.5564 64.2196 38.8278 64.3724 39.1051C64.4154 39.1837 64.4658 39.2015 64.5489 39.1941C64.8455 39.1644 65.1436 39.1407 65.4402 39.1125C66.8433 38.9805 68.2448 38.847 69.6478 38.7136C70.032 38.6765 70.4161 38.6394 70.8358 38.5994C70.6178 38.2286 70.4205 37.8845 70.2144 37.5449ZM51.3476 36.1685C51.4114 36.2872 51.4796 36.3228 51.6191 36.2916C52.5638 36.081 53.51 35.8823 54.4563 35.6776C55.2127 35.513 55.969 35.3439 56.7254 35.1778C56.9731 35.1229 57.2223 35.0666 57.4833 35.0073C57.3024 34.681 57.1274 34.3784 56.9657 34.0684C56.9034 33.9483 56.8367 33.9231 56.7061 33.9557C55.8741 34.1663 55.0391 34.3651 54.2071 34.5727C53.117 34.8441 52.0269 35.1215 50.9101 35.4033C51.0629 35.6702 51.2127 35.9164 51.3476 36.1685ZM42.2917 36.1092C40.8205 36.5215 39.3492 36.9353 37.878 37.3476C36.9406 37.6101 36.0033 37.8712 35.063 38.1233C34.8539 38.1796 34.6819 38.2449 34.6314 38.4822C34.6181 38.5415 34.578 38.5949 34.5513 38.6513C34.4802 38.7996 34.4104 38.9464 34.3274 39.1214C34.4104 39.1051 34.4609 39.0977 34.5098 39.0858C35.8758 38.7462 37.2432 38.4051 38.6092 38.064C39.5183 37.837 40.423 37.5923 41.3366 37.3862C41.657 37.3135 41.8839 37.1934 42.0159 36.879C42.1271 36.612 42.2799 36.3628 42.4297 36.0781C42.36 36.0929 42.3258 36.0988 42.2917 36.1092ZM70.9871 38.8797C70.9648 38.8411 70.8848 38.8144 70.8328 38.8174C70.3686 38.8545 69.9044 38.9004 69.4402 38.9435C68.0846 39.068 66.7291 39.1911 65.372 39.3142C65.108 39.338 64.8455 39.3661 64.5548 39.3958C64.7076 39.6539 64.8588 39.8808 64.979 40.121C65.0635 40.2886 65.1703 40.3257 65.3498 40.3139C66.9382 40.2056 68.5281 40.1077 70.1165 40.0068C70.5911 39.9772 71.0672 39.9475 71.5714 39.9164C71.3697 39.5515 71.1843 39.2119 70.9871 38.8797ZM72.227 41.0332C72.0712 40.7618 71.9081 40.4918 71.7568 40.2175C71.7064 40.1255 71.65 40.0973 71.5462 40.1047C70.9826 40.1477 70.4191 40.1863 69.854 40.2204C68.4851 40.302 67.1162 40.3806 65.7472 40.4607C65.5782 40.4711 65.4106 40.4844 65.2044 40.4992C65.3794 40.7929 65.5381 41.0495 65.6864 41.3135C65.7354 41.401 65.7917 41.4232 65.8866 41.4203C66.3731 41.3995 66.8596 41.3832 67.346 41.3669C68.9419 41.3164 70.5377 41.266 72.1335 41.2171C72.184 41.2156 72.2344 41.2097 72.3056 41.2052C72.2744 41.134 72.2552 41.0806 72.227 41.0332ZM52.0684 37.3491C52.0937 37.3877 52.1708 37.4218 52.2168 37.4144C53.1941 37.2394 54.1715 37.0599 55.1489 36.8775C55.8474 36.747 56.546 36.612 57.246 36.48C57.5619 36.4207 57.8793 36.3613 58.216 36.2976C58.1819 36.2204 58.1611 36.1626 58.1314 36.1107C58.0098 35.8971 57.8763 35.6895 57.7636 35.4715C57.7013 35.3528 57.6346 35.3232 57.5055 35.3528C56.9034 35.4878 56.2983 35.6124 55.6961 35.7429C54.6535 35.9698 53.6109 36.1982 52.5697 36.4281C52.2642 36.4948 51.9602 36.566 51.6369 36.6402C51.7881 36.8953 51.9231 37.1266 52.0684 37.3491ZM52.6795 38.3903C52.6943 38.4125 52.7536 38.4199 52.7907 38.4155C53.556 38.3027 54.3228 38.1885 55.0881 38.0699C56.0699 37.9186 57.0532 37.7644 58.035 37.6101C58.3168 37.5656 58.5986 37.5167 58.9071 37.4663C58.7336 37.1711 58.5749 36.8968 58.4058 36.6283C58.388 36.5986 58.305 36.5942 58.2575 36.6016C57.6761 36.7039 57.0932 36.8078 56.5133 36.916C55.2542 37.1504 53.9935 37.3877 52.7344 37.625C52.592 37.6517 52.4496 37.6828 52.2731 37.7184C52.414 37.9572 52.543 38.1767 52.6795 38.3903ZM53.2134 39.2786C53.2327 39.3083 53.292 39.3276 53.3306 39.3231C53.6064 39.2994 53.8838 39.2757 54.1596 39.2416C55.7332 39.0458 57.3068 38.8456 58.8804 38.6468C59.0866 38.6201 59.2912 38.592 59.5241 38.5608C59.3847 38.3146 59.2512 38.0966 59.137 37.8682C59.0762 37.7466 59.0005 37.7228 58.876 37.7436C58.0899 37.8682 57.3038 37.9839 56.5178 38.107C55.3906 38.282 54.2635 38.46 53.1363 38.6364C53.0503 38.6498 52.9642 38.6676 52.8515 38.6869C52.9791 38.899 53.0918 39.0918 53.2134 39.2786ZM53.6925 40.1003C53.7236 40.1477 53.8067 40.1908 53.863 40.1863C54.2338 40.1596 54.6031 40.1196 54.9739 40.084C56.371 39.952 57.7681 39.8215 59.1652 39.6895C59.4766 39.6598 59.7881 39.6287 60.1247 39.5945C60.0031 39.3869 59.8919 39.1985 59.7836 39.0102C59.6516 38.7818 59.6531 38.7862 59.395 38.8174C57.7221 39.0265 56.0506 39.2312 54.3777 39.4388C54.0573 39.4789 53.7369 39.5189 53.384 39.5634C53.4937 39.7607 53.5842 39.9371 53.6925 40.1003ZM33.9092 40.1433C35.023 39.8971 36.1368 39.6494 37.2521 39.4062C38.489 39.1363 39.7274 38.8723 40.9658 38.6038C41.0237 38.5905 41.1052 38.5742 41.1305 38.5311C41.2788 38.279 41.4122 38.0195 41.5635 37.7392C41.4953 37.7495 41.4553 37.754 41.4167 37.7629C40.9228 37.8815 40.4289 37.9972 39.9351 38.1188C38.0293 38.592 36.1249 39.0666 34.2206 39.5441C34.1687 39.5575 34.099 39.5827 34.0767 39.6227C33.9833 39.7903 33.9062 39.9653 33.8127 40.1581C33.8602 40.1507 33.8854 40.1492 33.9092 40.1433ZM60.325 39.9416C60.273 39.8407 60.2108 39.8037 60.0906 39.8155C58.1522 40.0009 56.2138 40.1819 54.2753 40.3643C54.1478 40.3761 54.0217 40.3925 53.8778 40.4088C53.9817 40.5853 54.0766 40.7351 54.1611 40.8908C54.2056 40.9724 54.262 40.9976 54.351 40.9872C54.4963 40.9709 54.6431 40.9649 54.79 40.956C56.546 40.8478 58.3005 40.7395 60.0565 40.6298C60.2538 40.6179 60.451 40.6016 60.6794 40.5867C60.5504 40.3524 60.4332 40.1492 60.325 39.9416ZM54.612 41.6412C54.658 41.7243 54.7173 41.751 54.8137 41.7465C55.4737 41.7213 56.1322 41.7006 56.7922 41.6828C58.1952 41.6442 59.5982 41.6071 61.0013 41.5701C61.0724 41.5686 61.1422 41.5597 61.2371 41.5537C61.1006 41.3164 60.9746 41.1073 60.8589 40.8908C60.8099 40.7974 60.7506 40.7736 60.6468 40.781C59.7436 40.8418 58.8389 40.8952 57.9342 40.9531C56.7477 41.0272 55.5627 41.1029 54.3346 41.18C54.4385 41.3476 54.5289 41.4929 54.612 41.6412ZM65.8718 41.6116C65.9386 41.7228 66.0142 41.8311 66.072 41.9483C66.1225 42.0506 66.1877 42.0847 66.3019 42.0847C68.4183 42.0817 70.5347 42.0817 72.6526 42.0817C72.6986 42.0817 72.7431 42.0817 72.8232 42.0817C72.7031 41.8771 72.5903 41.7035 72.4954 41.5196C72.4391 41.4114 72.3723 41.3772 72.2507 41.3802C70.465 41.4395 68.6808 41.4959 66.8952 41.5478C66.557 41.5582 66.2189 41.5493 65.8807 41.5493C65.8777 41.5701 65.8748 41.5908 65.8718 41.6116ZM51.6176 38.6068C51.4945 38.3962 51.3862 38.2241 51.2928 38.0432C51.2409 37.9423 51.1801 37.9186 51.0688 37.9394C50.2309 38.0966 49.3899 38.2464 48.552 38.4021C47.6413 38.5712 46.7307 38.7447 45.8201 38.9197C45.7637 38.9301 45.6866 38.9538 45.6629 38.9954C45.562 39.1704 45.476 39.3558 45.3677 39.5723C47.4723 39.2475 49.5308 38.9286 51.6176 38.6068ZM45.126 40.3628C46.4192 40.2011 47.714 40.038 49.0073 39.8763C49.9328 39.7607 50.8567 39.645 51.7822 39.5263C51.9661 39.5026 52.0388 39.3498 51.9498 39.1882C51.9172 39.1288 51.8742 39.0725 51.8504 39.0102C51.8 38.8752 51.711 38.8545 51.579 38.8767C50.6684 39.0191 49.7577 39.1526 48.8471 39.295C47.6784 39.4774 46.5097 39.6628 45.3425 39.8496C45.301 39.8556 45.2446 39.8778 45.2268 39.909C45.1467 40.0543 45.08 40.2056 44.9984 40.3732C45.0563 40.3687 45.0919 40.3672 45.126 40.3628ZM50.7944 37.1489C50.6298 36.8537 50.6283 36.8463 50.2917 36.919C49.0651 37.1845 47.8416 37.4663 46.6135 37.7199C46.3481 37.7748 46.1656 37.8682 46.0737 38.1307C46.0203 38.2835 45.9328 38.4229 45.8482 38.5979C47.6072 38.2731 49.3232 37.9572 51.0673 37.6353C50.968 37.4574 50.8805 37.3031 50.7944 37.1489ZM50.44 36.5482C50.2709 36.2501 50.1181 35.9772 49.9594 35.7073C49.9446 35.6836 49.8883 35.6672 49.8556 35.6732C49.7118 35.6969 49.5679 35.7251 49.4255 35.7607C48.6899 35.9446 47.9558 36.1433 47.2172 36.3124C46.9932 36.3643 46.8642 36.4607 46.7796 36.6713C46.6832 36.9116 46.5527 37.1385 46.4163 37.4129C47.7867 37.1177 49.1037 36.8345 50.44 36.5482ZM45.8141 40.9368C46.9917 40.8255 48.1708 40.7113 49.3484 40.6031C49.9847 40.5437 50.6209 40.4948 51.2572 40.437C51.318 40.431 51.407 40.4251 51.4292 40.388C51.5449 40.1997 51.6428 39.9994 51.7614 39.777C51.6665 39.7859 51.6102 39.7888 51.5538 39.7962C50.4059 39.9401 49.2579 40.0869 48.11 40.2293C47.0718 40.3583 46.0322 40.48 44.9925 40.609C44.9406 40.6149 44.8694 40.6372 44.8457 40.6757C44.7774 40.7855 44.73 40.9071 44.6647 41.0435C45.0666 41.005 45.4404 40.9724 45.8141 40.9368ZM40.7745 38.9998C40.2984 39.1007 39.8223 39.1985 39.3463 39.3024C37.5265 39.6969 35.7082 40.0914 33.8884 40.4859C33.5829 40.5526 33.5488 40.5823 33.4835 40.8997C33.4939 40.9012 33.5028 40.9071 33.5132 40.9056C34.7471 40.6772 35.9811 40.4503 37.215 40.2204C38.2903 40.0202 39.3641 39.817 40.4378 39.6109C40.4942 39.6005 40.5698 39.5753 40.5965 39.5323C40.7018 39.3647 40.7893 39.1882 40.9035 38.982C40.8338 38.9909 40.8042 38.9939 40.7745 38.9998ZM51.143 40.6446C49.9491 40.7573 48.7566 40.8715 47.5627 40.9842C46.6402 41.0717 45.7177 41.1563 44.7952 41.2438C44.5283 41.269 44.4734 41.3239 44.417 41.5997C44.5045 41.5997 44.5935 41.6042 44.681 41.5997C45.826 41.5285 46.9695 41.4559 48.1145 41.3832C49.0503 41.3239 49.9847 41.2645 50.9205 41.2022C50.968 41.1993 51.0332 41.1666 51.054 41.1296C51.14 40.9753 51.2112 40.8122 51.2913 40.6461C51.2349 40.6431 51.189 40.6401 51.143 40.6446ZM44.2613 42.0788C45.3707 42.0447 46.4801 42.0091 47.5894 41.9749C48.5475 41.9453 49.5056 41.9171 50.4622 41.886C50.5319 41.883 50.6328 41.883 50.6639 41.84C50.7574 41.7124 50.8241 41.5641 50.9161 41.3965C50.6595 41.4114 50.437 41.4247 50.2145 41.4381C49.1378 41.5048 48.0625 41.5745 46.9858 41.6398C46.1597 41.6902 45.3336 41.7317 44.509 41.7807C44.2598 41.7955 44.2598 41.8014 44.1708 42.0773C44.2094 42.0788 44.2346 42.0788 44.2613 42.0788ZM49.1348 34.2687C49.1185 34.242 49.0444 34.2331 49.0043 34.2435C48.6246 34.3413 48.2464 34.4437 47.8697 34.5519C47.8238 34.5653 47.7793 34.6187 47.757 34.6647C47.6146 34.9553 47.4812 35.2505 47.3417 35.5441C47.2854 35.6643 47.2246 35.7829 47.1519 35.9298C48.024 35.7162 48.8649 35.5115 49.7385 35.2979C49.5264 34.9331 49.3336 34.5979 49.1348 34.2687ZM33.7861 41.3817C35.8713 41.0584 37.9566 40.7365 40.0404 40.4103C40.0923 40.4028 40.1605 40.3791 40.1857 40.3405C40.2643 40.2204 40.3251 40.0884 40.4067 39.9342C40.3207 39.949 40.2688 39.9549 40.2198 39.9653C39.2988 40.1344 38.3763 40.299 37.4553 40.4711C36.122 40.7202 34.7916 40.9768 33.4583 41.223C33.3159 41.2497 33.2269 41.2986 33.2106 41.4677C33.4064 41.4381 33.5962 41.4114 33.7861 41.3817ZM61.0458 41.7169C59.1414 41.7762 57.2356 41.837 55.3313 41.8949C55.1548 41.9008 54.9768 41.8949 54.7929 41.8949C54.8122 42.0684 54.9027 42.0817 55.0184 42.0817C57.1392 42.0788 59.2601 42.0802 61.3809 42.0802C61.4269 42.0802 61.4714 42.0802 61.5218 42.0802C61.4136 41.7406 61.3676 41.708 61.0458 41.7169ZM33.0222 41.8489C33.6659 41.7762 34.3111 41.7095 34.9533 41.6294C36.4972 41.4381 38.0396 41.2393 39.5821 41.045C39.855 41.0109 39.898 40.9753 39.9781 40.6817C39.892 40.6935 39.809 40.7024 39.7289 40.7158C38.7664 40.8671 37.8053 41.0213 36.8428 41.1711C35.6058 41.3624 34.3689 41.5508 33.1335 41.7421C33.0875 41.7495 33.0445 41.7851 33 41.8074C33.0074 41.8207 33.0148 41.834 33.0222 41.8489ZM33.3619 42.0535C33.568 42.0728 33.7712 42.061 33.9744 42.0417C35.7734 41.8771 37.571 41.708 39.37 41.5493C39.542 41.5345 39.6236 41.4633 39.6651 41.2838C37.5532 41.5404 35.4575 41.797 33.3619 42.0535ZM57.1155 29.6161C56.6468 29.7541 56.2212 29.8786 55.7673 30.0121C55.972 30.3607 56.1604 30.681 56.371 31.037C56.6261 30.5505 56.8619 30.1011 57.1155 29.6161ZM36.0107 42.0728C36.3133 42.0728 36.6173 42.0862 36.9199 42.0699C37.6926 42.0283 38.4653 41.9705 39.238 41.926C39.3581 41.9186 39.4086 41.8756 39.41 41.7391C38.271 41.8459 37.1394 41.9527 36.0078 42.0595C36.0078 42.0654 36.0092 42.0684 36.0107 42.0728ZM48.067 34.0269C48.3592 33.9439 48.6054 33.8756 48.8768 33.7985C48.7507 33.5746 48.6395 33.3758 48.5075 33.1385C48.3547 33.447 48.2227 33.714 48.067 34.0269Z" fill="var(--fill-0, #767474)"/>
<path d="M76.3013 19.0518C77.2609 19.0563 78.222 19.0667 79.1815 19.0592C79.3847 19.0578 79.496 19.1245 79.5998 19.2965C80.3695 20.5661 81.1526 21.8267 81.9238 23.0948C82.3198 23.7444 82.701 24.4029 83.1192 25.1089C83.3447 24.7515 83.5449 24.4459 83.7317 24.133C84.7002 22.5134 85.6643 20.8909 86.6357 19.2728C86.6891 19.1838 86.8063 19.077 86.8952 19.0756C87.8444 19.0622 88.7951 19.0667 89.7458 19.0681C89.774 19.0681 89.8036 19.0859 89.857 19.1023C89.863 19.1972 89.8733 19.2965 89.8733 19.3959C89.8852 22.9376 89.8926 26.4793 89.9149 30.0225C89.9163 30.3354 89.8437 30.4273 89.5218 30.4184C88.6038 30.3947 87.6843 30.4006 86.7647 30.417C86.4992 30.4214 86.434 30.3339 86.434 30.0847C86.4325 28.6387 86.4177 27.1941 86.4073 25.7481C86.4058 25.628 86.4073 25.5064 86.4073 25.2898C86.3035 25.4367 86.2486 25.5049 86.2056 25.5775C85.4922 26.7729 84.7759 27.9669 84.0714 29.1682C83.972 29.3387 83.8578 29.3892 83.6739 29.3847C83.2824 29.3743 82.8893 29.3699 82.4963 29.3862C82.2887 29.3951 82.1878 29.3076 82.084 29.1385C81.3662 27.9698 80.6365 26.8085 79.9098 25.6458C79.889 25.6131 79.8608 25.585 79.7881 25.4989C79.7881 27.163 79.7881 28.7633 79.7881 30.3917C78.6002 30.3917 77.4493 30.3917 76.2984 30.3917C76.3013 26.6113 76.3013 22.8323 76.3013 19.0518ZM155 19.0518C154.877 19.0563 154.752 19.0637 154.629 19.0637C151.377 19.0637 148.126 19.0667 144.873 19.0592C144.62 19.0592 144.529 19.1215 144.54 19.3855C144.559 19.8809 144.545 20.3763 144.545 20.8716C144.545 21.2513 144.545 21.6295 144.545 22.0388C144.695 22.0388 144.807 22.0388 144.919 22.0388C145.766 22.0388 146.613 22.0388 147.458 22.0388C147.853 22.0388 147.853 22.0388 147.853 22.4467C147.854 24.9858 147.854 27.5264 147.856 30.0655C147.856 30.1737 147.866 30.282 147.871 30.3858C149.154 30.3858 150.396 30.3858 151.66 30.3858C151.66 28.9769 151.66 27.5961 151.66 26.2138C151.66 24.8345 151.66 23.4537 151.66 22.0255C152.796 22.0255 153.898 22.0255 154.999 22.0255C155 21.0348 155 20.044 155 19.0518ZM117.989 40.7647C118.247 41.1444 118.495 41.5314 118.748 41.9171H117.757C117.265 41.1429 116.78 40.3672 116.279 39.5975C116.237 39.5337 116.108 39.4922 116.021 39.4907C115.494 39.4847 114.968 39.4922 114.441 39.4936C114.188 39.4951 113.932 39.4936 113.668 39.4936V41.9156H112.739C112.746 41.7925 112.759 41.6694 112.759 41.5463C112.761 39.2341 112.759 36.9219 112.759 34.6112V34.2923C112.801 34.2642 112.819 34.2449 112.835 34.2449C114.01 34.2553 115.19 34.193 116.36 34.2938C118.296 34.4629 119.295 36.3153 118.462 38.0787C118.173 38.6883 117.657 39.0546 116.985 39.3112C117.327 39.8095 117.663 40.2841 117.989 40.7647ZM117.137 38.2953C117.726 37.972 117.978 37.2141 117.827 36.4473C117.695 35.774 117.179 35.2386 116.448 35.1704C115.537 35.0858 114.621 35.0947 113.679 35.0636V38.6216C114.5 38.6216 115.295 38.6527 116.086 38.6067C116.445 38.5875 116.823 38.4673 117.137 38.2953ZM106.48 41.9171C106.48 41.6442 106.48 41.3698 106.48 41.0628C104.977 41.0628 103.517 41.0628 102.039 41.0628C102.039 40.1774 102.039 39.3275 102.039 38.4421C103.321 38.4421 104.586 38.4421 105.878 38.4421C105.878 38.2463 105.863 38.0817 105.881 37.9201C105.91 37.6664 105.804 37.6071 105.566 37.6101C104.513 37.6205 103.46 37.613 102.407 37.613C102.287 37.613 102.167 37.613 102.039 37.613C102.039 36.7558 102.039 35.9431 102.039 35.0947C103.475 35.0947 104.893 35.0947 106.33 35.0947C106.33 34.7951 106.33 34.5326 106.33 34.2538C104.596 34.2538 102.879 34.2538 101.167 34.2538C101.155 34.2923 101.144 34.3116 101.144 34.3294C101.145 36.8581 101.148 39.3883 101.149 41.9171C102.928 41.9171 104.703 41.9171 106.48 41.9171ZM93.4506 34.2553V37.6931H88.8337V34.2553H87.9512V41.9171H88.8188C88.8248 40.916 88.8292 39.9148 88.8352 38.9152C88.8366 38.801 88.8352 38.6898 88.8352 38.5504H93.4669V41.9171H94.3346V34.2553H93.4506ZM131.823 41.9171H130.833C130.583 41.3001 130.336 40.6816 130.075 40.0706C130.054 40.0216 129.937 39.9905 129.866 39.9905C128.598 39.9846 127.329 39.9831 126.061 39.9935C125.968 39.9949 125.83 40.0854 125.79 40.1699C125.519 40.7454 125.265 41.3327 125.007 41.9171H124.078C124.515 40.9278 124.952 39.9386 125.393 38.9523C126.05 37.487 126.726 36.0276 127.355 34.5489C127.525 34.1485 127.803 34.2657 128.077 34.2301C128.347 34.193 128.449 34.3279 128.549 34.5504C129.22 36.0543 129.91 37.5522 130.582 39.0561C131.006 40.0053 131.411 40.9634 131.823 41.9171ZM129.646 39.1065C129.08 37.8251 128.526 36.5763 127.942 35.2519C127.347 36.5852 126.791 37.834 126.223 39.1065H129.646ZM143.059 38.2627C142.635 38.9686 141.956 39.3335 141.149 39.4328C140.741 39.4847 140.328 39.4847 139.917 39.4936C139.432 39.5025 138.948 39.4951 138.392 39.4951V41.9171H137.524C137.535 41.794 137.554 41.6723 137.554 41.5507C137.556 39.2816 137.556 37.0094 137.556 34.7403V34.2923C137.593 34.2642 137.609 34.2434 137.624 34.2434C138.79 34.2568 139.961 34.1974 141.119 34.3027C143.085 34.4792 144.084 36.5615 143.059 38.2627ZM142.52 36.428C142.411 35.7503 141.931 35.2579 141.167 35.1822C140.279 35.0947 139.38 35.1273 138.487 35.111C138.471 35.1095 138.456 35.1333 138.432 35.1511V38.6349C139.099 38.6349 139.73 38.6364 140.357 38.6349C140.491 38.6349 140.63 38.6527 140.758 38.6201C141.143 38.5192 141.57 38.4733 141.894 38.2671C142.558 37.8444 142.632 37.1414 142.52 36.428ZM154.382 34.2271C154.149 34.2019 154.032 34.3131 153.919 34.497C153.213 35.6731 152.495 36.8418 151.782 38.012C151.74 38.0802 151.688 38.141 151.636 38.2107C150.837 36.9338 150.049 35.6776 149.259 34.4199C149.214 34.3502 149.145 34.2479 149.081 34.2419C148.824 34.2212 148.563 34.2345 148.264 34.2345C148.324 34.3443 148.351 34.3991 148.381 34.4525C149.281 35.992 150.186 37.53 151.083 39.0724C151.153 39.1911 151.217 39.3364 151.22 39.4684C151.23 40.2856 151.221 41.0999 151.22 41.9156H152.087C152.086 41.1414 152.071 40.3672 152.089 39.593C152.092 39.3869 152.152 39.1644 152.252 38.9864C152.784 38.0328 153.33 37.0851 153.883 36.1418C154.247 35.5204 154.626 34.9093 154.999 34.2938V34.2315C154.794 34.233 154.585 34.2523 154.382 34.2271ZM76.3028 34.233V35.1006H78.7974V35.5233C78.7974 37.1815 78.7989 38.8381 78.7974 40.4977C78.7959 40.9708 78.787 41.4439 78.7811 41.9185H79.7095C79.7066 41.8785 79.6962 41.8355 79.6962 41.7954C79.6962 39.6197 79.6962 37.441 79.6977 35.2653C79.6977 35.2163 79.714 35.1674 79.7288 35.0888H82.1567V34.233H76.3028ZM105.21 19.0592C104.942 19.0563 104.885 19.1497 104.888 19.3974C104.899 20.8019 104.893 22.2064 104.893 23.6109C104.893 23.7815 104.893 23.9521 104.893 24.2012C104.77 24.0677 104.7 23.998 104.638 23.9224C103.337 22.3755 102.035 20.8301 100.742 19.2773C100.608 19.1171 100.476 19.0607 100.273 19.0622C99.4469 19.0726 98.6208 19.0652 97.7947 19.0667C97.6849 19.0667 97.5752 19.0756 97.455 19.0815C97.455 22.8664 97.455 26.6202 97.455 30.3814C98.6934 30.3814 99.9126 30.3814 101.167 30.3814C101.167 28.6876 101.167 27.0251 101.167 25.2854C101.301 25.4381 101.382 25.5286 101.459 25.6206C102.114 26.4036 102.766 27.1882 103.42 27.9728C104.055 28.7336 104.685 29.4974 105.33 30.2479C105.409 30.3398 105.574 30.4021 105.698 30.4036C106.535 30.417 107.371 30.411 108.208 30.411C108.328 30.411 108.448 30.411 108.587 30.411C108.587 26.6172 108.587 22.8634 108.587 19.0652C107.436 19.0652 106.323 19.0741 105.21 19.0592ZM122.437 25.0792C122.345 26.6558 121.781 28.0277 120.523 29.0184C119.295 29.9839 117.854 30.3903 116.305 30.4036C114.447 30.4184 112.589 30.4095 110.732 30.4095C110.652 30.4095 110.57 30.3962 110.471 30.3888V19.0815C110.587 19.0741 110.677 19.0652 110.767 19.0652C112.564 19.0652 114.36 19.0592 116.156 19.0681C117.357 19.0741 118.515 19.3129 119.594 19.8497C121.569 20.836 122.566 22.8827 122.437 25.0792ZM116.758 22.1634C115.973 22.0077 115.143 22.0685 114.312 22.0314V27.4166C114.922 27.4166 115.499 27.4314 116.076 27.4136C117.516 27.3692 118.459 26.4704 118.588 25.0362C118.716 23.5946 118.023 22.4155 116.758 22.1634ZM143.9 30.3873C143.9 29.4277 143.9 28.4948 143.9 27.5175C142.011 27.5175 140.141 27.5175 138.264 27.5175C138.264 27.0058 138.264 26.5371 138.264 26.0388C139.863 26.0388 141.437 26.0388 143.013 26.0388C143.013 25.1059 143.013 24.2042 143.013 23.2654C141.415 23.2654 139.841 23.2654 138.269 23.2654C138.269 22.8115 138.269 22.3963 138.269 21.9484C140.098 21.9484 141.898 21.9484 143.688 21.9484C143.688 20.971 143.688 20.0277 143.688 19.0889C140.612 19.0889 137.563 19.0889 134.5 19.0889C134.5 22.859 134.5 26.6053 134.5 30.3873C137.65 30.3873 140.771 30.3873 143.9 30.3873ZM123.152 29.4974C123.278 29.5686 123.383 29.6339 123.493 29.6888C125.026 30.454 126.667 30.6943 128.359 30.6661C129.433 30.6483 130.471 30.454 131.426 29.9275C132.586 29.2883 133.286 28.3421 133.332 26.988C133.366 25.9928 133.127 25.0659 132.253 24.4919C131.702 24.13 131.068 23.8571 130.437 23.6584C129.634 23.4048 128.792 23.2787 127.973 23.0711C127.72 23.0073 127.464 22.8931 127.252 22.7418C126.997 22.5594 127.017 22.2005 127.285 22.0403C127.5 21.9128 127.752 21.8178 127.998 21.7763C128.691 21.6606 129.381 21.7481 130.049 21.9395C130.61 22.0996 131.157 22.3073 131.74 22.5045C132.113 21.6147 132.488 20.7144 132.867 19.8067C132.811 19.7711 132.78 19.7474 132.744 19.7296C131.631 19.166 130.44 18.8917 129.203 18.8249C127.902 18.7537 126.625 18.8664 125.428 19.4463C124.666 19.8156 124.035 20.308 123.666 21.1045C123.011 22.5194 123.103 24.6654 125.317 25.5331C126.109 25.843 126.956 26.0062 127.776 26.245C128.289 26.3947 128.804 26.5416 129.301 26.7329C129.425 26.7818 129.565 27.0043 129.556 27.1363C129.545 27.2876 129.404 27.4804 129.266 27.5575C129.077 27.6628 128.838 27.7043 128.615 27.7221C127.329 27.8274 126.115 27.5501 124.952 27.0117C124.758 26.9227 124.566 26.8293 124.338 26.721C123.936 27.6628 123.546 28.5749 123.152 29.4974ZM95.567 19.0652C95.4424 19.0652 95.3416 19.0652 95.2407 19.0652C94.1877 19.0652 93.1332 19.0756 92.0802 19.0578C91.7969 19.0533 91.7391 19.1453 91.7406 19.4093C91.7495 22.9509 91.7465 26.4926 91.7465 30.0358C91.7465 30.147 91.7465 30.2568 91.7465 30.3903C93.0398 30.3903 94.293 30.3903 95.5655 30.3903C95.567 26.6039 95.567 22.8501 95.567 19.0652Z" fill="var(--fill-0, #767474)"/>
</g>
</g>
</svg>
