<svg preserveAspectRatio="xMidYMid meet" width="100%" height="100%" overflow="visible" style="display: block;" viewBox="0 0 187 58" fill="none" xmlns="http://www.w3.org/2000/svg">
<g id="Frame 42">
<rect width="187" height="58" rx="14" fill="var(--fill-0, white)"/>
<g id="Vector">
</g>
<g id="Vector_2">
<path d="M55.5326 26.1166H58.1348L61.0212 34.7103H61.2836L64.1701 26.1166H66.7723L62.9018 36.897H59.4031L55.5326 26.1166Z" fill="var(--fill-0, #767474)"/>
<path d="M67.4491 22.9021C67.4491 21.8743 68.2581 21.1527 69.264 21.1527C70.2699 21.1527 71.0571 21.8743 71.0571 22.9021C71.0571 23.908 70.2699 24.6515 69.264 24.6515C68.2581 24.6515 67.4491 23.908 67.4491 22.9021ZM70.4667 26.1166V36.897H68.0613V26.1166H70.4667Z" fill="var(--fill-0, #767474)"/>
<path d="M75.2369 26.1166V27.7785H75.5431C75.9367 26.5976 76.8332 26.0728 78.2983 26.0728H79.4354V28.3251H77.6861C76.221 28.3251 75.3025 29.1342 75.3025 30.7086V36.897H72.8972V26.1166H75.2369Z" fill="var(--fill-0, #767474)"/>
<path d="M80.3087 28.7625C81.3364 27.1224 82.9327 25.8104 85.5568 25.8104C88.487 25.8104 90.3675 27.4942 90.3675 30.0526V36.897H88.0059V35.2789H87.6998C87.3061 36.1317 86.3659 37.2032 84.1136 37.2032C81.6863 37.2032 80.09 35.8911 80.09 33.8794C80.09 32.0425 81.5114 30.9273 83.9386 30.6868L87.984 30.2713V29.987C87.984 28.7406 87.0875 27.9097 85.4693 27.9097C83.873 27.9097 82.9109 28.6969 82.3205 29.8996L80.3087 28.7625ZM82.5829 33.77C82.5829 34.6447 83.3045 35.2133 84.6165 35.2133C86.8469 35.2133 87.984 33.8794 87.984 32.2175V32.0425L84.4634 32.4143C83.3263 32.5236 82.5829 32.8954 82.5829 33.77Z" fill="var(--fill-0, #767474)"/>
<path d="M95.0749 21.5901V36.897H92.6695V21.5901H95.0749Z" fill="var(--fill-0, #767474)"/>
<path d="M97.2211 29.0686C97.2211 27.0568 99.1016 25.8104 101.441 25.8104C103.65 25.8104 105.159 26.7288 106.733 28.4345L104.984 29.7684C103.978 28.5001 102.775 27.7785 101.42 27.7785C100.304 27.7785 99.5827 28.2595 99.5827 29.0467C99.5827 29.9652 100.501 30.1182 101.66 30.2713L102.294 30.3588C105.246 30.7305 106.843 31.474 106.843 33.5951C106.843 35.7162 104.853 37.2032 102.032 37.2032C99.0142 37.2032 97.3304 35.5413 96.412 33.9887L98.4237 32.8079C99.1016 34.3167 100.523 35.1914 102.097 35.1914C103.431 35.1914 104.481 34.601 104.481 33.6607C104.481 32.6985 103.235 32.5673 102.076 32.4143L101.441 32.3268C98.708 31.9769 97.2211 31.1022 97.2211 29.0686Z" fill="var(--fill-0, #767474)"/>
<path d="M108.491 41.2704V26.1166H110.853V27.7129H111.159C111.749 26.7726 112.712 25.8104 114.723 25.8104C117.501 25.8104 119.731 28.1721 119.731 31.4959C119.731 34.8197 117.501 37.2032 114.723 37.2032C112.712 37.2032 111.749 36.241 111.159 35.2789H110.897V41.2704H108.491ZM114.089 35.0602C115.948 35.0602 117.326 33.77 117.326 31.4959C117.326 29.2217 115.948 27.9534 114.089 27.9534C112.187 27.9534 110.897 29.2873 110.897 31.4959C110.897 33.7044 112.187 35.0602 114.089 35.0602Z" fill="var(--fill-0, #767474)"/>
<path d="M120.807 31.4959C120.807 28.1283 123.234 25.8104 126.405 25.8104C129.575 25.8104 132.003 28.1283 132.003 31.4959C132.003 34.8634 129.575 37.2032 126.405 37.2032C123.234 37.2032 120.807 34.8634 120.807 31.4959ZM123.212 31.4959C123.212 33.6607 124.502 35.0383 126.405 35.0383C128.307 35.0383 129.597 33.6607 129.597 31.4959C129.597 29.331 128.307 27.9753 126.405 27.9753C124.502 27.9753 123.212 29.331 123.212 31.4959Z" fill="var(--fill-0, #767474)"/>
<path d="M132.464 26.1166H135.329V22.5741H137.734V26.1166H140.796V28.1939H137.734V34.1855C137.734 34.6229 137.931 34.8197 138.325 34.8197H140.183V36.897H137.297C136.16 36.897 135.329 36.0879 135.329 34.929V28.1939H132.464V26.1166Z" fill="var(--fill-0, #767474)"/>
<path d="M142.125 35.3007C142.125 34.2074 142.956 33.4202 144.027 33.4202C145.077 33.4202 145.908 34.2074 145.908 35.3007C145.908 36.3941 145.077 37.2032 144.027 37.2032C142.956 37.2032 142.125 36.3941 142.125 35.3007Z" fill="var(--fill-0, #767474)"/>
<path d="M147.643 28.7625C148.671 27.1224 150.267 25.8104 152.891 25.8104C155.822 25.8104 157.702 27.4942 157.702 30.0526V36.897H155.341V35.2789H155.034C154.641 36.1317 153.701 37.2032 151.448 37.2032C149.021 37.2032 147.425 35.8911 147.425 33.8794C147.425 32.0425 148.846 30.9273 151.273 30.6868L155.319 30.2713V29.987C155.319 28.7406 154.422 27.9097 152.804 27.9097C151.208 27.9097 150.246 28.6969 149.655 29.8996L147.643 28.7625ZM149.918 33.77C149.918 34.6447 150.639 35.2133 151.951 35.2133C154.182 35.2133 155.319 33.8794 155.319 32.2175V32.0425L151.798 32.4143C150.661 32.5236 149.918 32.8954 149.918 33.77Z" fill="var(--fill-0, #767474)"/>
<path d="M159.392 22.9021C159.392 21.8743 160.201 21.1527 161.207 21.1527C162.213 21.1527 163 21.8743 163 22.9021C163 23.908 162.213 24.6515 161.207 24.6515C160.201 24.6515 159.392 23.908 159.392 22.9021ZM162.41 26.1166V36.897H160.004V26.1166H162.41Z" fill="var(--fill-0, #767474)"/>
<path d="M24.1192 21.842V28.7883H29.5827C32.4106 28.7883 34.7046 26.4966 34.7046 23.6664V17.0143H28.9469C26.2804 17.0143 24.1192 19.1755 24.1192 21.842Z" fill="var(--fill-0, #767474)"/>
<path d="M42.9794 17.0001H36.3321V23.6474C36.3321 26.4871 38.6333 28.7883 41.473 28.7883H48.1203V22.1409C48.1203 19.3012 45.8191 17.0001 42.9794 17.0001Z" fill="var(--fill-0, #767474)"/>
<path d="M36.3321 35.3929V40.9774H42.9794C45.8191 40.9774 48.1203 38.6762 48.1203 35.8365V30.252H41.473C38.6333 30.252 36.3321 32.5532 36.3321 35.3929Z" fill="var(--fill-0, #767474)"/>
<path d="M33.6869 35.4498L32.7427 35.706C32.84 36.8163 32.4651 37.9574 31.6182 38.8043C30.0975 40.325 27.6255 40.325 26.1049 38.8043C24.5842 37.2837 24.5842 34.8117 26.1049 33.291C26.9542 32.4417 28.1 32.0669 29.2103 32.1665L29.4641 31.2223C28.0265 31.0444 26.5224 31.507 25.4216 32.6078C23.5261 34.5033 23.5261 37.5897 25.4216 39.4876C27.3171 41.3854 30.4036 41.3854 32.3014 39.4876C33.4022 38.3868 33.8625 36.8875 33.6869 35.4498Z" fill="var(--fill-0, #767474)"/>
<path d="M28.8093 33.6516C28.2115 33.6634 27.6184 33.8983 27.1629 34.3514C26.2282 35.2861 26.2282 36.8092 27.1629 37.7439C28.0976 38.6786 29.6207 38.6786 30.5554 37.7439C31.0085 37.2908 31.241 36.7024 31.2552 36.1093L30.3561 36.3537C30.2992 36.6384 30.1592 36.9112 29.9386 37.1318C29.3408 37.7297 28.3705 37.7297 27.775 37.1318C27.1795 36.534 27.1795 35.5637 27.775 34.9682C27.998 34.7452 28.2756 34.6053 28.565 34.5483L28.807 33.6516H28.8093Z" fill="var(--fill-0, #767474)"/>
<path d="M29.2981 33.6919L29.0727 34.5341L28.5863 36.3347L30.3775 35.8484L31.2197 35.6206L33.6015 34.973L35.4685 34.4677L33.8625 32.8616L32.7688 33.1534L31.7487 33.4286L31.381 33.5282L31.4806 33.1605L31.7558 32.1404L32.0476 31.0491L30.4439 29.443L29.2981 33.6919Z" fill="var(--fill-0, #767474)"/>
</g>
</g>
</svg>
