<svg preserveAspectRatio="xMidYMid meet" width="100%" height="100%" overflow="visible" style="display: block;" viewBox="0 0 187 58" fill="none" xmlns="http://www.w3.org/2000/svg">
<g id="Frame 42">
<rect width="187" height="58" rx="14" fill="var(--fill-0, white)"/>
<path id="Vector" fill-rule="evenodd" clip-rule="evenodd" d="M142.525 16.0228L150 13C149.486 14.5804 145.215 26.8629 134.287 35.6965C137.368 30.2279 140.45 21.7283 141.914 17.6917L141.914 17.6913L141.916 17.6856C142.171 16.9821 142.377 16.4146 142.525 16.0228ZM89.2016 22.2238H95.8022L87.7185 33.3904L96.0738 44.9618H89.5159L84.4285 37.9347L79.3415 44.9618H72.7835L81.1388 33.3904L73.0547 22.2238H79.6553L84.4285 28.8342L89.2016 22.2238ZM114.587 30.9774C114.762 30.3121 115.015 29.7181 115.348 29.1954C115.68 28.6725 116.081 28.225 116.547 27.853C117.015 27.4811 117.534 27.1961 118.104 26.9976C118.674 26.7996 119.284 26.7007 119.933 26.7007C122.784 26.7007 124.583 28.1262 125.327 30.9774H114.587ZM119.815 21.8774C116.44 21.8774 113.732 22.9941 111.689 25.2275C109.661 27.4929 108.647 30.4549 108.647 34.1137C108.647 36.2471 108.999 38.1354 109.697 39.7818H101.453V22.217H96.1102V44.9728L110.882 44.8091L110.802 41.7839C111.099 42.2105 111.425 42.6168 111.783 43.0003C112.317 43.5659 112.9 44.0493 113.524 44.4688C119.898 43.6841 125.26 41.6155 129.745 38.8861L126.515 37.0839C125.422 38.7944 124.448 39.9672 123.593 40.6004C122.721 41.2341 121.62 41.5507 120.29 41.5507C118.579 41.5507 117.177 40.9965 116.084 39.8873C114.991 38.7627 114.373 37.2499 114.231 35.3493H128.155L129.797 38.8544C131.267 37.9563 132.644 36.9898 133.93 35.9728L127.835 21.8845C127.835 21.8845 120.552 21.8774 119.815 21.8774ZM60.9876 27.8598C60.5204 28.2322 60.1204 28.6797 59.7879 29.2022C59.4555 29.7248 59.2018 30.3189 59.0278 30.9842H69.7671C69.0228 28.133 67.225 26.7075 64.3737 26.7075C63.7243 26.7075 63.1144 26.8064 62.5439 27.0044C61.9739 27.2028 61.4553 27.4879 60.9876 27.8598ZM70.9554 37.0907L75.4696 39.6091C74.7727 40.7974 74.0362 41.8152 73.2599 42.6624C72.4839 43.5098 71.6522 44.2068 70.7652 44.7535C70.6502 44.8243 70.5319 44.8887 70.4135 44.9531C70.3826 44.9699 70.3518 44.9867 70.3209 45.0036C66.3443 45.0175 52.9625 45.0131 52.9625 45.0131V31.4846C52.9625 31.4846 53.3162 26.7455 48.1766 26.7455C42.8955 26.7455 43.43 31.5001 43.43 31.5001V44.9977H38.0077V31.4846C38.0077 31.4846 37.9903 31.1917 38.0077 30.7146V21.8842H48.4091L48.4138 21.8925C50.2203 21.8775 51.9323 22.062 53.1 22.4052C54.8001 22.9048 55.6994 23.4452 56.813 24.5607C58.7645 22.7807 61.2426 21.8842 64.2548 21.8842C67.6606 21.8842 70.3533 22.9693 72.3333 25.1394C74.2976 27.2934 75.2794 30.2798 75.2794 34.0967L75.2557 35.3561H58.6712C58.814 37.2571 59.4314 38.7695 60.5244 39.8945C61.6174 41.0033 63.0194 41.5575 64.7299 41.5575C66.0605 41.5575 67.1617 41.2409 68.0326 40.6072C68.888 39.974 69.8623 38.8015 70.9554 37.0907Z" fill="var(--fill-0, #767474)"/>
</g>
</svg>
